<svg xmlns="http://www.w3.org/2000/svg" width="21.391" height="20.852" viewBox="0 0 21.391 20.852">
  <g id="password" transform="translate(3066.426 -1652.574)">
    <g id="Group_36683" data-name="Group 36683">
      <g id="Ellipse_389" data-name="Ellipse 389" transform="matrix(-0.174, 0.985, -0.985, -0.174, -3045.574, 1655.699)" fill="none" stroke="#9fa1ab" stroke-linecap="round" stroke-width="1" stroke-dasharray="48 200">
        <circle cx="9" cy="9" r="9" stroke="none"/>
        <circle cx="9" cy="9" r="8.5" fill="none"/>
      </g>
      <path id="Path_19434" data-name="Path 19434" d="M-3048.964,1663.624l2.175-2.294,1.9,2.294" transform="matrix(0.996, 0.087, -0.087, 0.996, 132.312, 274.354)" fill="none" stroke="#9fa1ab" stroke-linecap="round" stroke-linejoin="round" stroke-width="1"/>
    </g>
    <g id="Group_36684" data-name="Group 36684">
      <g id="Rectangle_4200" data-name="Rectangle 4200" transform="translate(-3060 1662)" fill="none" stroke="#9fa1ab" stroke-width="1">
        <rect width="8" height="5" stroke="none"/>
        <rect x="0.5" y="0.5" width="7" height="4" fill="none"/>
      </g>
      <g id="Rectangle_4201" data-name="Rectangle 4201" transform="translate(-3059 1658)" fill="none" stroke="#9fa1ab" stroke-width="1">
        <path d="M3,0H3A3,3,0,0,1,6,3V5A0,0,0,0,1,6,5H0A0,0,0,0,1,0,5V3A3,3,0,0,1,3,0Z" stroke="none"/>
        <path d="M3,.5H3A2.5,2.5,0,0,1,5.5,3V4.475a.025.025,0,0,1-.025.025H.525A.025.025,0,0,1,.5,4.475V3A2.5,2.5,0,0,1,3,.5Z" fill="none"/>
      </g>
    </g>
  </g>
</svg>
